<svg xmlns="http://www.w3.org/2000/svg" width="19" height="14" viewBox="0 0 19 14">
    <g fill="none" fill-rule="evenodd">
        <path d="M0 0H24V24H0z" transform="translate(-3 -5)"/>
        <path fill="#BCBCC8" d="M21.608 11.689C21.452 11.378 18.178 5 12.333 5c-5.845 0-9.119 6.378-9.275 6.689-.077.233-.077.467 0 .7.156.233 3.43 6.611 9.275 6.611 5.846 0 9.12-6.378 9.275-6.689.078-.155.078-.467 0-.622zm-9.275 5.755c-4.208 0-6.936-4.2-7.716-5.444.702-1.244 3.508-5.444 7.716-5.444 4.21 0 6.937 4.2 7.716 5.444-.779 1.244-3.507 5.444-7.716 5.444zm0-8.555c-1.714 0-3.117 1.4-3.117 3.111 0 1.711 1.403 3.111 3.117 3.111 1.715 0 3.118-1.4 3.118-3.111 0-1.711-1.403-3.111-3.118-3.111zm0 4.667c-.857 0-1.558-.7-1.558-1.556 0-.856.701-1.556 1.558-1.556.858 0 1.56.7 1.56 1.556 0 .856-.702 1.556-1.56 1.556z" transform="translate(-3 -5)"/>
    </g>
</svg>
