<svg xmlns="http://www.w3.org/2000/svg" viewBox="0 0 78 78"><defs><style>.cls-1{fill:#34b39e;}</style></defs><title>lp sign_01</title><g id="Layer_3" data-name="Layer 3"><path class="cls-1" d="M39,1.5A37.5,37.5,0,1,0,76.5,39,37.54,37.54,0,0,0,39,1.5Zm0,74A36.5,36.5,0,1,1,75.5,39,36.54,36.54,0,0,1,39,75.5Z"/><path class="cls-1" d="M50.07,21.15a1.07,1.07,0,0,0-1.16.25,29.7,29.7,0,0,1-6.22,5A29.62,29.62,0,0,1,27.32,30.7a29.89,29.89,0,0,1-4.45-.33c-.49-.07-1.31-.22-1.87-.33l-.71-.12a7.8,7.8,0,0,0,0,15.59l.71-.12,1.25-.23,5,14.53a.85.85,0,0,0,.8.57.86.86,0,0,0,.27,0l7.14-2.38a.82.82,0,0,0,.5-.43.84.84,0,0,0,0-.66L31.79,45.07a29.55,29.55,0,0,1,17.12,9,1.07,1.07,0,0,0,.77.34,1.08,1.08,0,0,0,1.06-1.06V22.13A1,1,0,0,0,50.07,21.15ZM35,56.93l-6.85,2.29L23.26,45a31.26,31.26,0,0,1,3.23-.25c1.62,0,3.2.09,4,.15l.19,0ZM31.4,44v0l-.32,0-.55,0a30.88,30.88,0,0,0-3.2-.19l-.81,0a18.1,18.1,0,0,0-4,.36l-1.68.29-.52.11a6.8,6.8,0,0,1-.05-13.59l.58.1c.57.11,1.41.27,1.9.34a30.47,30.47,0,0,0,4.6.34,30.55,30.55,0,0,0,15.49-4.2V47.92A30.56,30.56,0,0,0,31.4,44Zm18.34,9.3-.1,0a30.79,30.79,0,0,0-5.83-4.8V26.89a33.23,33.23,0,0,0,5.89-4.81,0,0,0,0,1,0,.05Z"/><path class="cls-1" d="M54.93,29.62a.48.48,0,0,0,.26-.07L62,25.38a.5.5,0,0,0,.16-.69.49.49,0,0,0-.68-.16l-6.77,4.16a.51.51,0,0,0-.17.69A.5.5,0,0,0,54.93,29.62Z"/><path class="cls-1" d="M62,49.53l-6.77-4.17a.5.5,0,0,0-.69.17.49.49,0,0,0,.17.68l6.77,4.17a.5.5,0,0,0,.68-.16A.5.5,0,0,0,62,49.53Z"/><path class="cls-1" d="M63,37.21H55.19a.5.5,0,0,0-.5.5.5.5,0,0,0,.5.5H63a.5.5,0,0,0,.5-.5A.5.5,0,0,0,63,37.21Z"/></g></svg>