<svg xmlns="http://www.w3.org/2000/svg" viewBox="0 0 78 78"><defs><style>.cls-1{fill:#34b39e;}</style></defs><title>lp sign_03</title><g id="Layer_3" data-name="Layer 3"><path class="cls-1" d="M39,1.5A37.5,37.5,0,1,0,76.5,39,37.54,37.54,0,0,0,39,1.5Zm0,74A36.5,36.5,0,1,1,75.5,39,36.54,36.54,0,0,1,39,75.5Z"/><path class="cls-1" d="M55.46,20.77H22.54a6,6,0,0,0-6,6V47.42a6,6,0,0,0,6,6h8.33l8.31,8.49,8.29-8.49h8a6,6,0,0,0,6-6V26.81A6,6,0,0,0,55.46,20.77Zm5,26.65a5,5,0,0,1-5,5H47.05l-7.87,8.06-7.89-8.06H22.54a5,5,0,0,1-5-5V26.81a5,5,0,0,1,5-5H55.46a5,5,0,0,1,5,5Z"/><path class="cls-1" d="M43.51,31.85a7,7,0,0,0-4.33,1.62,7,7,0,0,0-4.34-1.62,4.35,4.35,0,0,0-3.08,1.59c-2.29,2.62-.85,5.8,1.08,7.72,1.41,1.41,5.83,5.15,6,5.31l.07,0,.07,0a.53.53,0,0,0,.17,0h0a.59.59,0,0,0,.17,0l.07,0,.07,0c.18-.16,4.6-3.9,6-5.31,1.93-1.92,3.37-5.1,1.08-7.72A4.35,4.35,0,0,0,43.51,31.85Zm1.29,8.61c-1.16,1.16-4.57,4.07-5.63,5-1.05-.9-4.46-3.81-5.62-5-.59-.59-3.4-3.66-1-6.36a3.35,3.35,0,0,1,2.38-1.25,6.45,6.45,0,0,1,4,1.64l.07,0,.08,0,.09,0,.1,0,.09,0,.09,0,.08,0,.07,0a6.39,6.39,0,0,1,4-1.64,3.35,3.35,0,0,1,2.38,1.25C48.2,36.8,45.39,39.87,44.8,40.46Z"/></g></svg>