<svg xmlns="http://www.w3.org/2000/svg" viewBox="0 0 78 78"><defs><style>.cls-1{fill:#34b39e;}</style></defs><title>lp sign_02</title><g id="Layer_3" data-name="Layer 3"><path class="cls-1" d="M39,1.5A37.5,37.5,0,1,0,76.5,39,37.54,37.54,0,0,0,39,1.5Zm0,74A36.5,36.5,0,1,1,75.5,39,36.54,36.54,0,0,1,39,75.5Z"/><path class="cls-1" d="M64.21,36.47C60.56,22.1,55,20.87,51,20c-3.19-.71-8.16,1.2-10.84,2.4a2.67,2.67,0,0,1-2.18,0c-2.67-1.2-7.64-3.12-10.83-2.4-4.05.89-9.58,2.12-13.24,16.49-1.58,6.21-2.61,14.45,1.46,18.4l.08.08a5.11,5.11,0,0,0,3.66,1.52c1.82,0,4.26-.9,7.32-3.85,1.18-1.13,2.12-2.09,2.93-2.91C31.86,47.15,33,46,35.53,45.27a12.8,12.8,0,0,1,7,0c2.51.72,3.66,1.88,6.18,4.44.81.82,1.76,1.78,2.93,2.91,6.12,5.89,9.72,3.59,11,2.33l.07-.08C66.82,50.92,65.79,42.68,64.21,36.47ZM62.06,54.16l-.09.08c-1.31,1.31-4.3,2.75-9.58-2.34-1.17-1.13-2.11-2.08-2.92-2.9-2.56-2.6-3.85-3.9-6.62-4.69a13.82,13.82,0,0,0-7.6,0c-2.76.79-4.05,2.09-6.62,4.69-.8.82-1.75,1.77-2.91,2.9-5.29,5.09-8.28,3.65-9.59,2.34l-.08-.08c-3.73-3.62-2.7-11.49-1.19-17.44C18.36,23,23.55,21.79,27.34,21a6.19,6.19,0,0,1,1.33-.13c3,0,7.1,1.67,8.88,2.47a3.65,3.65,0,0,0,3,0c2.07-.92,7.19-3,10.21-2.34,3.79.84,9,2,12.48,15.77C64.76,42.67,65.78,50.54,62.06,54.16Z"/><path class="cls-1" d="M30.16,32.24H27.62V29.7c0-.05,0-1.2-1.9-1.2s-1.91,1.15-1.91,1.2v2.54H21l-.16,0a1.84,1.84,0,0,0-1,1.88,1.85,1.85,0,0,0,1,1.88l2.93,0v2.77s0,1.21,1.91,1.21,1.9-1.16,1.9-1.21V36h2.54c.05,0,1.2,0,1.2-1.9S30.21,32.24,30.16,32.24Zm0,2.8H26.62v3.72c0,.07-.22.26-.9.26s-.89-.19-.91-.21V35H21.16a1.43,1.43,0,0,1,0-1.8h3.65V29.75c0-.07.23-.25.91-.25s.88.18.9.2v3.54h3.5c.07,0,.24.25.24.9S30.17,35,30.16,35Z"/><path class="cls-1" d="M52.48,32.42a2.14,2.14,0,1,0-2.13-2.14A2.14,2.14,0,0,0,52.48,32.42Zm0-3.27a1.14,1.14,0,1,1-1.13,1.13A1.13,1.13,0,0,1,52.48,29.15Z"/><path class="cls-1" d="M52.48,36.09a2.14,2.14,0,1,0,2.14,2.14A2.13,2.13,0,0,0,52.48,36.09Zm0,3.28a1.14,1.14,0,1,1,1.14-1.14A1.13,1.13,0,0,1,52.48,39.37Z"/><path class="cls-1" d="M56.46,32.12a2.14,2.14,0,1,0,2.13,2.14A2.14,2.14,0,0,0,56.46,32.12Zm0,3.27a1.14,1.14,0,1,1,1.13-1.13A1.14,1.14,0,0,1,56.46,35.39Z"/><path class="cls-1" d="M48.51,32.12a2.14,2.14,0,1,0,2.13,2.14A2.14,2.14,0,0,0,48.51,32.12Zm0,3.27a1.14,1.14,0,1,1,1.13-1.13A1.14,1.14,0,0,1,48.51,35.39Z"/></g></svg>