<svg xmlns="http://www.w3.org/2000/svg" width="96" height="24" viewBox="0 0 96 24">
    <g fill="none" fill-rule="evenodd">
        <path fill="#FFF" d="M35.062 19.51c2.539 0 4.64-.915 6.014-2.6l-2.164-1.996c-.978 1.144-2.207 1.726-3.663 1.726-2.727 0-4.662-1.913-4.662-4.658 0-2.744 1.935-4.658 4.662-4.658 1.456 0 2.685.583 3.663 1.706l2.164-1.997c-1.373-1.663-3.475-2.578-5.994-2.578-4.537 0-7.908 3.14-7.908 7.527 0 4.388 3.371 7.528 7.888 7.528zm8.283-.25H54.02v-2.744h-7.305V4.704h-3.371V19.26zm12.57 0h3.371V4.704h-3.371V19.26zm23.243 0l-.041-14.556h-2.772L70.98 13.75 65.53 4.704h-2.789V19.26h3.164v-8.546l4.263 7.008h1.519l4.283-7.195.021 8.733h3.167zm14.156-7.569c1.186-.624 1.935-1.746 1.935-3.202 0-2.267-1.873-3.785-5.515-3.785h-7.117V19.26h7.533c3.83 0 5.828-1.455 5.828-3.971 0-1.83-1.04-3.078-2.664-3.598zm-3.996-4.45c1.644 0 2.54.562 2.54 1.705 0 1.144-.896 1.726-2.54 1.726h-3.35v-3.43h3.35zm.583 9.483h-3.934v-3.598h3.934c1.748 0 2.684.582 2.684 1.809 0 1.248-.936 1.789-2.684 1.789z"/>
        <path fill="#E91F38" d="M22.27 5.805C20.173 2.327 16.355 0 11.993 0c-1.513 0-2.96.28-4.294.791-.347.133-.572.434-.602.805-.029.37.146.703.468.889l7.437 4.29 4.033 2.326c.955.551 2.124.392 2.896-.395.773-.787.91-1.957.34-2.9zM5.975 11.982V3.406c0-.372-.2-.69-.537-.85-.335-.16-.71-.115-.998.12C1.73 4.871 0 8.225 0 11.981c0 3.757 1.73 7.11 4.439 9.308.289.234.662.278.998.119.336-.16.537-.478.537-.85v-8.577zm13.06 2.882L15 17.19l-7.437 4.29c-.322.186-.497.518-.468.889.03.37.255.671.602.805 1.333.51 2.781.79 4.294.79 4.362 0 8.18-2.326 10.279-5.804.569-.944.432-2.114-.34-2.901-.773-.787-1.942-.947-2.897-.395zm-3.64-3.153c.1.057.157.156.157.271 0 .116-.057.214-.157.272l-4.867 2.807c-.1.058-.214.058-.314 0-.1-.057-.157-.156-.157-.271V9.175c0-.115.057-.214.157-.272.1-.057.214-.057.314 0l4.867 2.808z"/>
    </g>
</svg>
