<?xml version="1.0" encoding="UTF-8"?>
<svg width="1056px" height="192px" viewBox="0 0 1056 192" version="1.1" xmlns="http://www.w3.org/2000/svg" xmlns:xlink="http://www.w3.org/1999/xlink">
    <!-- Generator: Sketch 62 (91390) - https://sketch.com -->
    <title>Group 61</title>
    <desc>Created with Sketch.</desc>
    <g id="Main" stroke="none" stroke-width="1" fill="none" fill-rule="evenodd">
        <g id="Group-61" transform="translate(-0.000650, -0.000262)">
            <rect id="Rectangle-Copy-15" fill="#131317" x="0.000649538451" y="0.000261559785" width="1056" height="192" rx="5"></rect>
            <path d="M236.454,0 L44.208,192 L11.694,192 L203.94,0 L236.454,0 Z M304.38,0 L112.134,192 L79.62,192 L271.866,0 L304.38,0 Z M372.305,0 L180.059,192 L147.545,192 L339.791,0 L372.305,0 Z M440.231,0 L247.985,192 L215.471,192 L407.717,0 L440.231,0 Z M508.157,0 L315.911,192 L283.396,192 L475.642,0 L508.157,0 Z M576.083,0 L383.837,192 L351.322,192 L543.568,0 L576.083,0 Z M644.008,0 L451.762,192 L419.248,192 L611.494,0 L644.008,0 Z M711.933,0 L519.688,192 L487.174,192 L679.42,0 L711.933,0 Z M779.859,0 L587.613,192 L555.099,192 L747.345,0 L779.859,0 Z M847.785,0 L655.539,192 L623.025,192 L815.271,0 L847.785,0 Z M915.711,0 L723.465,192 L690.95,192 L883.196,0 L915.711,0 Z M983.637,0 L791.391,192 L758.876,192 L951.122,0 L983.637,0 Z M1051.00065,0.000261559785 C1051.18095,0.000261559785 1051.35902,0.00980498919 1051.53439,0.0284142665 L859.317,192 L826.802,192 L1019.048,0 L1051.00065,0.000261559785 Z M1056,30.935 L1056,63.407 L927.242,192 L894.728,192 L1056,30.935 Z M1056,98.773 L1056,131.246 L995.168,192 L962.654,192 L1056,98.773 Z M1056,166.612 L1056.00065,187.000262 C1056.00065,189.761685 1053.76207,192.000262 1051.00065,192.000262 L1030.58,192 L1056,166.612 Z M168.528,0 L0,168.313 L0,135.841 L136.015,0 L168.528,0 Z M100.603,0 L0,100.474 L0,68.001 L68.088,0 L100.603,0 Z M32.678,0 L0,32.636 L0.000649538451,5.00026156 C0.000649538451,2.23883781 2.23922579,0.000261559785 5.00064954,0.000261559785 L32.678,0 Z" id="Combined-Shape" fill="#1C1C22"></path>
        </g>
    </g>
</svg>